<?xml version="1.0" encoding="UTF-8"?>
<svg id="Layer_1" data-name="Layer 1" xmlns="http://www.w3.org/2000/svg" width="600" height="700" viewBox="0 0 600 700">
  <defs>
    <style>
      .cls-1 {
        fill: #0078b4;
      }

      .cls-2 {
        fill: #fff;
      }

      .cls-3 {
        fill: #d1628e;
      }

      .cls-4 {
        font-family: Rubik-SemiBold, Rubik;
        font-size: 32px;
        font-weight: 600;
      }
    </style>
  </defs>
  <rect class="cls-2" x="-107.28" y="-106.96" width="3218.25" height="864"/>
  <g>
    <path class="cls-1" d="m300,340.83l190.94-105.84c58.45,105.45,20.35,238.33-85.1,296.78-105.45,58.45-238.33,20.35-296.78-85.1-58.45-105.45-20.35-238.33,85.1-296.78,33.75-18.71,67.26-27.37,105.84-27.37v218.31Z"/>
    <path class="cls-2" d="m300,340.83l.97,1.75,190.94-105.84-.97-1.75-1.75.97c18.42,33.23,27.16,69.2,27.16,104.67,0,76.09-40.22,149.89-111.48,189.39-33.23,18.42-69.2,27.16-104.67,27.16-76.09,0-149.89-40.22-189.39-111.48-18.42-33.23-27.16-69.2-27.16-104.67,0-76.09,40.22-149.89,111.48-189.39,33.49-18.55,66.59-27.11,104.87-27.12v-2h-2v221.71l2.97-1.65-.97-1.75h2V120.52h-2c-38.88,0-72.81,8.76-106.81,27.62-72.58,40.23-113.55,115.4-113.54,192.89,0,36.13,8.91,72.78,27.66,106.61,40.23,72.58,115.4,113.55,192.89,113.54,36.13,0,72.78-8.91,106.61-27.66,72.58-40.23,113.55-115.4,113.54-192.89,0-36.13-8.91-72.78-27.66-106.61l-.97-1.75-192.69,106.81.97,1.75h2-2Z"/>
    <path class="cls-3" d="m300,340.83V122.52c81.99,0,151.19,40.76,190.94,112.47l-190.94,105.84Z"/>
    <path class="cls-2" d="m300,340.83h2V122.52h-2v2c40.66,0,78.09,10.1,110.29,29.07,32.2,18.97,59.18,46.81,78.9,82.37l1.75-.97-.97-1.75-190.94,105.84.97,1.75h2-2l.97,1.75,192.69-106.81-.97-1.75c-20.03-36.14-47.53-64.54-80.36-83.88-32.84-19.34-71-29.62-112.33-29.62h-2v223.71l2.97-1.65-.97-1.75Z"/>
  </g>
  <g>
    <path class="cls-2" d="m364.67,222.47c-.16,0-.3-.06-.42-.17-.12-.11-.18-.26-.18-.43v-11.93l-3.46,2.66c-.14.11-.29.15-.44.12-.15-.03-.29-.12-.4-.26l-1.2-1.56c-.1-.14-.13-.3-.11-.46.02-.16.11-.29.25-.38l5.47-4.22c.1-.06.19-.11.28-.13.09-.02.19-.04.3-.04h2.54c.16,0,.3.06.41.17.11.11.17.26.17.43v15.6c0,.18-.06.32-.17.43s-.25.17-.41.17h-2.64Z"/>
    <path class="cls-2" d="m372.95,222.47c-.14,0-.26-.05-.36-.16-.1-.1-.14-.23-.14-.37,0-.06.02-.14.05-.22l5.66-12.84h-7.37c-.16,0-.3-.06-.42-.17-.12-.11-.18-.25-.18-.41v-2.04c0-.18.06-.32.18-.43.12-.11.26-.17.42-.17h10.87c.19,0,.34.06.44.17.1.11.16.26.16.43v1.8c0,.24-.02.44-.06.59-.04.15-.1.31-.18.47l-5.64,12.77c-.05.1-.13.22-.25.36-.12.14-.31.22-.56.22h-2.62Z"/>
    <path class="cls-2" d="m392.82,214.14c-1.09,0-1.95-.28-2.58-.85-.63-.57-.98-1.33-1.04-2.29-.03-.42-.04-.78-.04-1.09,0-.31.02-.69.04-1.14.05-.98.38-1.76,1-2.34.62-.58,1.49-.88,2.63-.88s2.03.29,2.64.88c.61.58.94,1.36.98,2.34.03.45.05.83.05,1.14s-.02.68-.05,1.09c-.05.96-.39,1.72-1.03,2.29-.64.57-1.5.85-2.59.85Zm-1.94,8.33c-.35,0-.53-.16-.53-.48,0-.1.03-.18.1-.26l11.86-15.6c.11-.14.22-.26.34-.34s.27-.12.48-.12h1.49c.35,0,.53.16.53.48,0,.1-.03.18-.1.26l-11.86,15.6c-.11.14-.22.26-.32.34-.1.08-.27.12-.49.12h-1.49Zm1.94-10.27c.3,0,.54-.06.72-.19.18-.13.31-.3.4-.5s.14-.42.16-.62c.03-.38.05-.72.05-1.02s-.02-.62-.05-.97c-.02-.34-.12-.64-.31-.92-.19-.28-.51-.42-.96-.42s-.76.14-.95.42c-.18.28-.29.59-.32.92-.02.35-.02.68-.02.97s0,.64.02,1.02c.03.21.09.42.17.62s.21.38.38.5.42.19.72.19Zm9.86,10.39c-1.09,0-1.95-.29-2.58-.86s-.98-1.34-1.04-2.3c-.03-.42-.04-.78-.04-1.1,0-.32.02-.7.04-1.15.05-.96.38-1.74,1-2.33s1.49-.89,2.63-.89,2.01.3,2.63.89.95,1.37,1,2.33c.03.45.05.83.05,1.15s-.02.69-.05,1.1c-.05.96-.4,1.73-1.04,2.3-.65.58-1.51.86-2.58.86Zm0-1.97c.3,0,.54-.06.72-.19.18-.13.31-.3.4-.5s.14-.42.16-.65c.03-.37.05-.7.05-1s-.02-.63-.05-1c-.02-.34-.12-.64-.31-.91-.19-.27-.51-.41-.96-.41s-.76.14-.95.41c-.18.27-.29.58-.32.91-.02.37-.02.7-.02,1s0,.63.02,1c.03.22.08.44.16.65.07.21.2.38.38.5.18.13.43.19.73.19Z"/>
  </g>
  <g>
    <path class="cls-2" d="m280.08,449.92c-1.12,0-2.11-.13-2.96-.4-.86-.26-1.57-.63-2.15-1.1s-1.01-1.02-1.3-1.66-.43-1.32-.43-2.08c0-.91.22-1.7.67-2.38.45-.67,1.02-1.19,1.7-1.56-.56-.37-1-.84-1.31-1.4-.31-.57-.47-1.23-.47-1.98,0-.91.23-1.72.7-2.42.46-.7,1.16-1.26,2.08-1.68.92-.42,2.08-.62,3.47-.62s2.52.2,3.43.61,1.6.96,2.06,1.67c.46.7.7,1.51.7,2.42,0,.75-.15,1.42-.46,1.99-.3.58-.74,1.05-1.3,1.42.74.35,1.32.87,1.75,1.56.43.69.65,1.49.65,2.4,0,.99-.26,1.88-.77,2.66-.51.78-1.28,1.4-2.3,1.86-1.02.46-2.28.68-3.77.68Zm0-2.76c.56,0,1.07-.1,1.54-.3.46-.2.83-.48,1.09-.85s.4-.8.4-1.3-.13-.95-.4-1.31c-.26-.36-.63-.64-1.09-.84-.46-.2-.98-.3-1.54-.3s-1.09.1-1.55.3c-.46.2-.82.48-1.09.84-.27.36-.41.8-.41,1.31s.14.93.41,1.3c.27.37.64.65,1.09.85.46.2.97.3,1.55.3Zm0-7.51c.5-.02.94-.11,1.34-.29.4-.18.72-.42.96-.73.24-.31.36-.68.36-1.09s-.12-.8-.35-1.12c-.23-.31-.55-.56-.95-.73-.4-.18-.86-.26-1.37-.26s-.97.09-1.38.26c-.41.18-.72.42-.95.73-.22.31-.34.68-.34,1.12s.11.8.34,1.12c.22.31.54.56.95.73.41.18.87.26,1.38.26Z"/>
    <path class="cls-2" d="m295.7,449.92c-1.18,0-2.2-.14-3.05-.43-.85-.29-1.54-.66-2.09-1.1s-.95-.94-1.22-1.48c-.27-.54-.42-1.05-.43-1.55,0-.14.05-.26.14-.36.1-.1.22-.14.36-.14h2.64c.18,0,.32.04.43.11.11.07.22.2.31.37.13.37.34.66.62.89.29.22.63.38,1.02.47.39.09.81.13,1.26.13.9,0,1.6-.21,2.11-.62.51-.42.77-1,.77-1.75s-.24-1.32-.72-1.66-1.16-.5-2.04-.5h-2.57c-.16,0-.3-.06-.41-.17s-.17-.25-.17-.41v-1.18c0-.19.04-.35.11-.48s.15-.22.23-.29l4.13-3.79h-6.77c-.18,0-.32-.06-.43-.17-.11-.11-.17-.25-.17-.41v-1.92c0-.18.06-.32.17-.43.11-.11.26-.17.43-.17h10.66c.18,0,.32.06.43.17.11.11.17.26.17.43v1.73c0,.18-.03.32-.1.44-.06.12-.14.21-.24.28l-3.91,3.86.24.02c.94.1,1.78.33,2.52.7.74.37,1.32.89,1.74,1.57s.64,1.54.64,2.58-.3,2.02-.89,2.81-1.4,1.39-2.42,1.81c-1.02.42-2.19.64-3.5.64Z"/>
    <path class="cls-2" d="m313.44,441.35c-1.09,0-1.95-.28-2.58-.85-.63-.57-.98-1.33-1.04-2.29-.03-.42-.04-.78-.04-1.09,0-.31.02-.69.04-1.14.05-.98.38-1.76,1-2.34.62-.58,1.49-.88,2.63-.88s2.03.29,2.64.88c.61.58.94,1.36.98,2.34.03.45.05.83.05,1.14s-.02.68-.05,1.09c-.05.96-.39,1.72-1.03,2.29-.64.57-1.5.85-2.59.85Zm-1.94,8.33c-.35,0-.53-.16-.53-.48,0-.1.03-.18.1-.26l11.86-15.6c.11-.14.22-.26.34-.34s.27-.12.48-.12h1.49c.35,0,.53.16.53.48,0,.1-.03.18-.1.26l-11.86,15.6c-.11.14-.22.26-.32.34-.1.08-.27.12-.49.12h-1.49Zm1.94-10.27c.3,0,.54-.06.72-.19.18-.13.31-.3.4-.5s.14-.42.16-.62c.03-.38.05-.72.05-1.02s-.02-.62-.05-.97c-.02-.34-.12-.64-.31-.92-.19-.28-.51-.42-.96-.42s-.76.14-.95.42c-.18.28-.29.59-.32.92-.02.35-.02.68-.02.97s0,.64.02,1.02c.03.21.09.42.17.62s.21.38.38.5.42.19.72.19Zm9.86,10.39c-1.09,0-1.95-.29-2.58-.86s-.98-1.34-1.04-2.3c-.03-.42-.04-.78-.04-1.1,0-.32.02-.7.04-1.15.05-.96.38-1.74,1-2.33s1.49-.89,2.63-.89,2.01.3,2.63.89.95,1.37,1,2.33c.03.45.05.83.05,1.15s-.02.69-.05,1.1c-.05.96-.4,1.73-1.04,2.3-.65.58-1.51.86-2.58.86Zm0-1.97c.3,0,.54-.06.72-.19.18-.13.31-.3.4-.5s.14-.42.16-.65c.03-.37.05-.7.05-1s-.02-.63-.05-1c-.02-.34-.12-.64-.31-.91-.19-.27-.51-.41-.96-.41s-.76.14-.95.41c-.18.27-.29.58-.32.91-.02.37-.02.7-.02,1s0,.63.02,1c.03.22.08.44.16.65.07.21.2.38.38.5.18.13.43.19.73.19Z"/>
  </g>
  <text class="cls-4" transform="translate(201.89 74.56)"><tspan x="0" y="0">WP vs Admin</tspan></text>
  <g>
    <circle class="cls-1" cx="175.56" cy="625.09" r="11.34"/>
    <g>
      <path d="m203.01,631.62c-.14,0-.25-.04-.33-.12s-.13-.18-.16-.3l-1.67-8.97s0-.05,0-.07,0-.03,0-.04c0-.08.03-.15.09-.21.06-.06.13-.08.2-.08h1.23c.23,0,.36.09.39.28l1.16,6.34,1.26-4.1c.03-.07.08-.15.15-.23.07-.08.18-.12.32-.12h.76c.15,0,.26.04.32.12s.11.16.13.23l1.27,4.09,1.16-6.33c.03-.19.16-.28.39-.28h1.23c.08,0,.14.03.2.08.06.06.08.13.08.21v.04s0,.04-.01.07l-1.67,8.97c-.02.12-.07.22-.15.3s-.2.12-.34.12h-.94c-.14,0-.25-.04-.33-.11-.08-.07-.13-.15-.16-.24l-1.57-4.68-1.57,4.68c-.04.08-.09.16-.17.24-.07.08-.19.11-.34.11h-.94Z"/>
      <path d="m213.16,631.62c-.09,0-.17-.03-.24-.1-.07-.07-.1-.14-.1-.24v-9.11c0-.1.03-.19.1-.25.06-.07.14-.1.24-.1h3.75c.73,0,1.36.11,1.9.34s.96.57,1.26,1.04.45,1.04.45,1.73-.15,1.28-.45,1.73-.72.79-1.26,1.01c-.54.22-1.18.34-1.9.34h-2.09v3.28c0,.09-.03.17-.09.24s-.14.1-.25.1h-1.33Zm1.64-5.17h2.04c.54,0,.96-.13,1.25-.38.29-.26.43-.64.43-1.14,0-.47-.14-.84-.41-1.13-.27-.28-.7-.43-1.27-.43h-2.04v3.08Z"/>
      <path d="m227.1,631.62c-.09,0-.17-.03-.24-.1s-.1-.14-.1-.24v-7.74h-2.59c-.09,0-.17-.03-.24-.1s-.1-.14-.1-.24v-1.04c0-.1.03-.19.1-.25s.14-.1.24-.1h7.14c.1,0,.19.03.25.1s.1.15.1.25v1.04c0,.09-.03.17-.1.24s-.15.1-.25.1h-2.58v7.74c0,.09-.03.17-.1.24s-.15.1-.25.1h-1.29Z"/>
      <path d="m234.84,631.76c-.75,0-1.37-.13-1.88-.39-.51-.26-.9-.63-1.16-1.11-.27-.48-.42-1.03-.46-1.67,0-.17-.01-.37-.01-.62s0-.45.01-.62c.04-.64.19-1.2.47-1.67.28-.47.67-.84,1.18-1.1.51-.26,1.13-.39,1.85-.39s1.35.13,1.86.39c.51.26.9.63,1.18,1.1.28.47.43,1.03.47,1.67,0,.17.01.37.01.62s0,.45-.01.62c-.04.63-.19,1.19-.45,1.67-.27.48-.65.84-1.16,1.11-.51.26-1.14.39-1.88.39Zm0-1.39c.5,0,.88-.16,1.15-.47s.42-.77.45-1.38c0-.14.01-.32.01-.55s0-.41-.01-.55c-.03-.61-.18-1.07-.45-1.38-.27-.31-.65-.47-1.15-.47s-.88.16-1.15.47c-.27.31-.42.77-.45,1.38,0,.14-.01.32-.01.55s0,.41.01.55c.03.61.18,1.07.45,1.38s.65.47,1.15.47Z"/>
      <path d="m243.14,631.62c-.56,0-1.03-.1-1.41-.29s-.67-.49-.85-.88c-.19-.39-.28-.87-.28-1.45v-3.18h-1.11c-.09,0-.17-.03-.24-.1-.07-.07-.1-.15-.1-.25v-.8c0-.09.03-.17.1-.24.06-.07.14-.1.24-.1h1.11v-2.32c0-.09.03-.17.09-.24s.14-.1.25-.1h1.13c.09,0,.17.03.24.1s.1.14.1.24v2.32h1.75c.09,0,.17.03.24.1s.1.14.1.24v.8c0,.1-.03.19-.1.25s-.14.1-.24.1h-1.75v3.04c0,.38.07.68.2.9.14.21.37.32.71.32h.97c.09,0,.17.03.24.1.07.07.1.15.1.24v.87c0,.09-.03.17-.1.24s-.14.1-.24.1h-1.13Z"/>
      <path d="m247.98,631.76c-.49,0-.92-.1-1.32-.29-.39-.19-.7-.45-.93-.77s-.34-.68-.34-1.08c0-.65.27-1.17.8-1.56.53-.39,1.23-.65,2.09-.78l1.92-.28v-.29c0-.39-.1-.7-.29-.91s-.53-.32-1.01-.32c-.34,0-.61.07-.82.2-.21.14-.37.32-.47.54-.08.12-.18.18-.32.18h-1.11c-.1,0-.18-.03-.23-.08-.05-.06-.08-.13-.08-.22,0-.15.07-.33.19-.55.12-.21.29-.42.53-.62.24-.2.55-.37.93-.51s.84-.21,1.39-.21c.59,0,1.08.07,1.49.22s.73.34.97.58.42.53.53.85c.11.33.17.67.17,1.04v4.4c0,.09-.03.17-.1.24-.07.07-.15.1-.24.1h-1.13c-.1,0-.18-.03-.25-.1s-.09-.14-.09-.24v-.55c-.12.17-.29.33-.49.49-.21.16-.46.29-.75.38-.29.1-.64.15-1.04.15Zm.48-1.33c.33,0,.62-.07.89-.21.27-.14.48-.36.63-.65.15-.29.23-.67.23-1.11v-.29l-1.4.22c-.55.08-.96.22-1.23.41s-.41.42-.41.69c0,.21.06.38.19.52s.29.25.48.32c.2.07.4.1.62.1Z"/>
      <path d="m254.21,631.62c-.09,0-.17-.03-.24-.1s-.1-.14-.1-.24v-9.27c0-.09.03-.17.1-.24s.14-.1.24-.1h1.16c.09,0,.17.03.24.1s.1.14.1.24v9.27c0,.09-.03.17-.1.24s-.14.1-.24.1h-1.16Z"/>
    </g>
    <circle class="cls-3" cx="333.73" cy="625.09" r="11.34"/>
    <g>
      <path d="m358.74,631.62c-.08,0-.14-.03-.2-.08s-.09-.13-.09-.21c0-.04,0-.08.03-.13l3.37-9.03c.03-.09.08-.17.16-.25.08-.07.19-.1.33-.1h1.53c.14,0,.25.04.32.1.08.07.13.15.17.25l3.37,9.03s.01.09.01.13c0,.08-.03.15-.08.21-.06.06-.12.08-.2.08h-1.22c-.13,0-.23-.03-.29-.09s-.1-.12-.12-.17l-.66-1.71h-4.16l-.66,1.71c-.02.06-.06.11-.12.17s-.16.09-.29.09h-1.22Zm2.77-3.58h3.18l-1.6-4.33-1.58,4.33Z"/>
      <path d="m371.49,631.76c-.49,0-.91-.08-1.28-.25-.37-.16-.67-.39-.92-.69-.24-.3-.43-.65-.56-1.06-.13-.41-.21-.85-.22-1.34,0-.17-.01-.32-.01-.46s0-.29.01-.45c.02-.47.09-.9.22-1.3s.31-.75.56-1.06.56-.54.92-.71c.37-.17.8-.25,1.28-.25s.93.09,1.28.26c.35.17.64.39.88.67v-3.11c0-.09.03-.17.09-.24s.14-.1.25-.1h1.19c.09,0,.17.03.24.1s.1.14.1.24v9.27c0,.09-.03.17-.1.24s-.14.1-.24.1h-1.11c-.1,0-.18-.03-.25-.1s-.09-.14-.09-.24v-.52c-.23.29-.53.53-.89.71s-.81.28-1.35.28Zm.52-1.5c.39,0,.71-.09.94-.27.23-.18.41-.4.52-.68.11-.28.17-.56.18-.85,0-.17.01-.35.01-.54s0-.37-.01-.54c0-.28-.08-.55-.2-.81s-.3-.47-.53-.64-.54-.25-.91-.25-.7.09-.93.26-.39.4-.5.68c-.1.28-.16.59-.18.92,0,.28,0,.56,0,.84.02.34.08.64.18.92s.27.51.5.68.54.26.93.26Z"/>
      <path d="m377.71,631.62c-.09,0-.17-.03-.24-.1-.07-.07-.1-.14-.1-.24v-6.61c0-.09.03-.17.1-.24.06-.07.14-.1.24-.1h1.09c.09,0,.17.03.24.1s.1.14.1.24v.48c.2-.26.46-.48.79-.67.33-.18.73-.28,1.18-.29,1.06-.02,1.81.4,2.23,1.25.21-.37.53-.67.93-.9.41-.23.86-.34,1.35-.34s.93.11,1.32.34c.4.22.71.56.94,1.01.23.45.34,1.02.34,1.72v4.02c0,.09-.03.17-.1.24s-.14.1-.24.1h-1.15c-.09,0-.17-.03-.24-.1s-.1-.14-.1-.24v-3.91c0-.42-.06-.75-.18-1-.12-.25-.29-.42-.49-.52-.21-.1-.43-.15-.69-.15-.21,0-.41.05-.62.15-.21.1-.37.28-.5.52-.13.25-.2.58-.2,1v3.91c0,.09-.03.17-.1.24s-.14.1-.24.1h-1.15c-.09,0-.17-.03-.24-.1s-.1-.14-.1-.24v-3.91c0-.42-.07-.75-.2-1-.13-.25-.3-.42-.5-.52s-.42-.15-.66-.15c-.21,0-.42.05-.63.16s-.37.28-.5.52c-.13.24-.2.57-.2.99v3.91c0,.09-.03.17-.1.24s-.14.1-.24.1h-1.18Z"/>
      <path d="m390.28,623.13c-.09,0-.17-.03-.24-.1s-.1-.14-.1-.24v-1.01c0-.09.03-.17.1-.24.07-.06.14-.1.24-.1h1.27c.1,0,.19.03.25.1.06.07.1.15.1.24v1.01c0,.09-.03.17-.1.24-.07.07-.15.1-.25.1h-1.27Zm.06,8.48c-.09,0-.17-.03-.24-.1-.07-.07-.1-.14-.1-.24v-6.61c0-.09.03-.17.1-.24.06-.07.14-.1.24-.1h1.16c.1,0,.18.03.25.1s.09.14.09.24v6.61c0,.09-.03.17-.09.24s-.14.1-.25.1h-1.16Z"/>
      <path d="m394.31,631.62c-.09,0-.17-.03-.24-.1-.07-.07-.1-.14-.1-.24v-6.61c0-.09.03-.17.1-.24.06-.07.14-.1.24-.1h1.15c.09,0,.17.03.24.1.06.07.1.14.1.24v.57c.24-.3.55-.55.93-.75.38-.2.85-.3,1.41-.3s1.06.13,1.48.38.74.62.97,1.08.34,1.03.34,1.68v3.93c0,.09-.03.17-.1.24s-.14.1-.24.1h-1.23c-.09,0-.17-.03-.24-.1s-.1-.14-.1-.24v-3.85c0-.54-.13-.97-.4-1.27s-.65-.46-1.16-.46-.87.15-1.16.46-.43.73-.43,1.27v3.85c0,.09-.03.17-.1.24-.07.07-.15.1-.24.1h-1.23Z"/>
      <path d="m408.24,631.62c-.09,0-.17-.03-.24-.1s-.1-.14-.1-.24v-7.74h-2.59c-.09,0-.17-.03-.24-.1s-.1-.14-.1-.24v-1.04c0-.1.03-.19.1-.25s.14-.1.24-.1h7.14c.1,0,.19.03.25.1s.1.15.1.25v1.04c0,.09-.03.17-.1.24s-.15.1-.25.1h-2.58v7.74c0,.09-.03.17-.1.24s-.15.1-.25.1h-1.29Z"/>
      <path d="m415.99,631.76c-.75,0-1.37-.13-1.88-.39-.51-.26-.9-.63-1.16-1.11-.27-.48-.42-1.03-.46-1.67,0-.17-.01-.37-.01-.62s0-.45.01-.62c.04-.64.19-1.2.47-1.67.28-.47.67-.84,1.18-1.1.51-.26,1.13-.39,1.85-.39s1.35.13,1.86.39c.51.26.9.63,1.18,1.1.28.47.43,1.03.47,1.67,0,.17.01.37.01.62s0,.45-.01.62c-.04.63-.19,1.19-.45,1.67-.27.48-.65.84-1.16,1.11-.51.26-1.14.39-1.88.39Zm0-1.39c.5,0,.88-.16,1.15-.47s.42-.77.45-1.38c0-.14.01-.32.01-.55s0-.41-.01-.55c-.03-.61-.18-1.07-.45-1.38-.27-.31-.65-.47-1.15-.47s-.88.16-1.15.47c-.27.31-.42.77-.45,1.38,0,.14-.01.32-.01.55s0,.41.01.55c.03.61.18,1.07.45,1.38s.65.47,1.15.47Z"/>
      <path d="m424.29,631.62c-.56,0-1.03-.1-1.41-.29s-.67-.49-.85-.88c-.19-.39-.28-.87-.28-1.45v-3.18h-1.11c-.09,0-.17-.03-.24-.1-.07-.07-.1-.15-.1-.25v-.8c0-.09.03-.17.1-.24.06-.07.14-.1.24-.1h1.11v-2.32c0-.09.03-.17.09-.24s.14-.1.25-.1h1.13c.09,0,.17.03.24.1s.1.14.1.24v2.32h1.75c.09,0,.17.03.24.1s.1.14.1.24v.8c0,.1-.03.19-.1.25s-.14.1-.24.1h-1.75v3.04c0,.38.07.68.2.9.14.21.37.32.71.32h.97c.09,0,.17.03.24.1.07.07.1.15.1.24v.87c0,.09-.03.17-.1.24s-.14.1-.24.1h-1.13Z"/>
      <path d="m429.12,631.76c-.49,0-.92-.1-1.32-.29-.39-.19-.7-.45-.93-.77s-.34-.68-.34-1.08c0-.65.27-1.17.8-1.56.53-.39,1.23-.65,2.09-.78l1.92-.28v-.29c0-.39-.1-.7-.29-.91s-.53-.32-1.01-.32c-.34,0-.61.07-.82.2-.21.14-.37.32-.47.54-.08.12-.18.18-.32.18h-1.11c-.1,0-.18-.03-.23-.08-.05-.06-.08-.13-.08-.22,0-.15.07-.33.19-.55.12-.21.29-.42.53-.62.24-.2.55-.37.93-.51s.84-.21,1.39-.21c.59,0,1.08.07,1.49.22s.73.34.97.58.42.53.53.85c.11.33.17.67.17,1.04v4.4c0,.09-.03.17-.1.24-.07.07-.15.1-.24.1h-1.13c-.1,0-.18-.03-.25-.1s-.09-.14-.09-.24v-.55c-.12.17-.29.33-.49.49-.21.16-.46.29-.75.38-.29.1-.64.15-1.04.15Zm.48-1.33c.33,0,.62-.07.89-.21.27-.14.48-.36.63-.65.15-.29.23-.67.23-1.11v-.29l-1.4.22c-.55.08-.96.22-1.23.41s-.41.42-.41.69c0,.21.06.38.19.52s.29.25.48.32c.2.07.4.1.62.1Z"/>
      <path d="m435.35,631.62c-.09,0-.17-.03-.24-.1s-.1-.14-.1-.24v-9.27c0-.09.03-.17.1-.24s.14-.1.24-.1h1.16c.09,0,.17.03.24.1s.1.14.1.24v9.27c0,.09-.03.17-.1.24s-.14.1-.24.1h-1.16Z"/>
    </g>
  </g>
</svg>