<?xml version="1.0" encoding="UTF-8"?>
<svg id="Layer_1" data-name="Layer 1" xmlns="http://www.w3.org/2000/svg" width="1200" height="700" viewBox="0 0 1200 700">
  <defs>
    <style>
      .cls-1 {
        fill: #0078b4;
      }

      .cls-2 {
        fill: #fff;
      }

      .cls-3 {
        fill: #d1628e;
      }

      .cls-4 {
        font-family: Rubik-SemiBold, Rubik;
        font-size: 32px;
        font-weight: 600;
      }
    </style>
  </defs>
  <rect class="cls-2" x="-1949.58" y="-106.96" width="3218.25" height="864"/>
  <g>
    <g>
      <path class="cls-1" d="m333.33,340.84l185.14,115.69c-63.89,102.25-198.58,133.34-300.83,69.45s-133.34-198.58-69.45-300.83c40.89-65.44,107.97-102.62,185.14-102.62v218.31Z"/>
      <path class="cls-2" d="m333.33,340.84l-1.06,1.7,185.14,115.69,1.06-1.7-1.7-1.06c-41.03,65.67-111.53,101.71-183.65,101.71-39.15,0-78.77-10.62-114.42-32.9-65.67-41.03-101.71-111.53-101.71-183.65,0-39.15,10.62-78.77,32.9-114.42,20.28-32.45,47.02-57.85,78.24-75.16,31.23-17.31,66.94-26.52,105.2-26.52v-2h-2v219.42l.94.59,1.06-1.7h2V120.53h-2c-38.9,0-75.31,9.38-107.14,27.02-31.83,17.64-59.08,43.55-79.69,76.54-22.68,36.3-33.51,76.67-33.51,116.54,0,73.44,36.72,145.25,103.59,187.04,36.3,22.68,76.67,33.51,116.54,33.51,73.44,0,145.25-36.72,187.04-103.59l1.06-1.7-186.84-116.75-1.06,1.7h2-2Z"/>
      <path class="cls-3" d="m333.33,340.84V122.53c120.57,0,218.31,97.74,218.31,218.31,0,43.41-10.17,78.88-33.17,115.69l-185.14-115.69Z"/>
      <path class="cls-2" d="m333.33,340.84h2V122.53h-2v2c59.74,0,113.8,24.21,152.96,63.36,39.15,39.15,63.36,93.22,63.36,152.96,0,21.55-2.52,41.07-7.88,59.77-5.36,18.7-13.57,36.59-24.99,54.86l1.7,1.06,1.06-1.7-185.14-115.69-1.06,1.7h2-2l-1.06,1.7,186.84,116.75,1.06-1.7c11.58-18.54,19.96-36.79,25.44-55.88,5.47-19.09,8.04-39.01,8.04-60.87,0-121.68-98.64-220.31-220.31-220.31h-2v221.42l.94.59,1.06-1.7Z"/>
    </g>
    <g>
      <path class="cls-1" d="m866.7,340.84l185.14,115.69c-63.89,102.25-198.58,133.34-300.83,69.45-102.25-63.89-133.34-198.58-69.45-300.83,40.89-65.44,107.97-102.62,185.14-102.62v218.31Z"/>
      <path class="cls-2" d="m866.7,340.84l-1.06,1.7,185.14,115.69,1.06-1.7-1.7-1.06c-41.03,65.67-111.53,101.71-183.65,101.71-39.15,0-78.77-10.62-114.42-32.9-65.67-41.03-101.71-111.53-101.71-183.65,0-39.15,10.62-78.77,32.9-114.42,20.28-32.45,47.02-57.85,78.24-75.16,31.23-17.31,66.94-26.52,105.2-26.52v-2h-2v219.42l.94.59,1.06-1.7h2V120.53h-2c-38.9,0-75.31,9.38-107.14,27.02-31.83,17.64-59.08,43.55-79.69,76.54-22.68,36.3-33.51,76.67-33.51,116.54,0,73.44,36.72,145.25,103.59,187.04,36.3,22.68,76.67,33.51,116.54,33.51,73.44,0,145.25-36.72,187.04-103.59l1.06-1.7-186.84-116.75-1.06,1.7h2-2Z"/>
      <path class="cls-3" d="m866.7,340.84V122.53c120.57,0,218.31,97.74,218.31,218.31,0,43.41-10.17,78.88-33.17,115.69l-185.14-115.69Z"/>
      <path class="cls-2" d="m866.7,340.84h2V122.53h-2v2c59.74,0,113.8,24.21,152.96,63.36,39.15,39.15,63.36,93.22,63.36,152.96,0,21.55-2.52,41.07-7.88,59.77-5.36,18.7-13.57,36.59-24.99,54.86l1.7,1.06,1.06-1.7-185.14-115.69-1.06,1.7h2-2l-1.06,1.7,186.84,116.75,1.06-1.7c11.58-18.54,19.97-36.79,25.44-55.88,5.48-19.09,8.04-39.01,8.04-60.87,0-121.68-98.64-220.31-220.31-220.31h-2v221.42l.94.59,1.06-1.7Z"/>
    </g>
  </g>
  <g>
    <path class="cls-2" d="m418.86,279.87c-1.18,0-2.2-.14-3.05-.43-.85-.29-1.54-.66-2.09-1.1-.54-.45-.95-.94-1.22-1.48-.27-.54-.42-1.05-.43-1.55,0-.14.05-.26.14-.36.1-.1.21-.14.36-.14h2.64c.18,0,.32.04.43.11.11.07.21.2.31.37.13.37.34.66.62.89.29.22.63.38,1.02.47.39.09.81.13,1.26.13.9,0,1.6-.21,2.11-.62.51-.42.77-1,.77-1.75s-.24-1.32-.72-1.66-1.16-.5-2.04-.5h-2.57c-.16,0-.3-.06-.41-.17-.11-.11-.17-.25-.17-.41v-1.18c0-.19.04-.35.11-.48s.15-.22.23-.29l4.13-3.79h-6.77c-.18,0-.32-.06-.43-.17-.11-.11-.17-.25-.17-.41v-1.92c0-.18.06-.32.17-.43s.26-.17.43-.17h10.66c.18,0,.32.06.43.17.11.11.17.26.17.43v1.73c0,.18-.03.32-.1.44s-.14.21-.24.28l-3.91,3.86.24.02c.95.1,1.79.33,2.52.7.73.37,1.31.89,1.74,1.57s.64,1.54.64,2.58-.3,2.02-.89,2.81-1.4,1.39-2.42,1.81c-1.02.42-2.19.64-3.5.64Z"/>
    <path class="cls-2" d="m436.09,279.63c-.16,0-.3-.06-.41-.17-.11-.11-.17-.26-.17-.43v-2.88h-7.56c-.16,0-.3-.06-.41-.17-.11-.11-.17-.25-.17-.43v-1.94c0-.11.02-.23.07-.36.05-.13.11-.25.19-.36l7.03-9.65c.21-.27.5-.41.89-.41h3.05c.16,0,.3.06.41.17s.17.26.17.43v9.53h2.14c.19,0,.34.06.44.17s.16.25.16.41v2.02c0,.18-.06.32-.17.43-.11.11-.25.17-.41.17h-2.16v2.88c0,.18-.06.32-.17.43-.11.11-.25.17-.41.17h-2.52Zm-4.99-6.55h4.49v-6.31l-4.49,6.31Z"/>
    <path class="cls-2" d="m452.6,271.3c-1.09,0-1.95-.28-2.58-.85-.63-.57-.98-1.33-1.04-2.29-.03-.42-.04-.78-.04-1.09,0-.31.02-.69.04-1.14.05-.98.38-1.76,1-2.34.62-.58,1.49-.88,2.63-.88s2.03.29,2.64.88c.61.58.94,1.36.98,2.34.03.45.05.83.05,1.14s-.02.68-.05,1.09c-.05.96-.39,1.72-1.03,2.29-.64.57-1.5.85-2.59.85Zm-1.94,8.33c-.35,0-.53-.16-.53-.48,0-.1.03-.18.1-.26l11.86-15.6c.11-.14.22-.26.34-.34.11-.08.27-.12.48-.12h1.49c.35,0,.53.16.53.48,0,.1-.03.18-.1.26l-11.86,15.6c-.11.14-.22.26-.32.34-.1.08-.27.12-.49.12h-1.49Zm1.94-10.27c.3,0,.54-.06.72-.19.18-.13.31-.3.39-.5s.14-.42.16-.62c.03-.38.05-.72.05-1.02s-.02-.62-.05-.97c-.02-.34-.12-.64-.31-.92-.19-.28-.51-.42-.96-.42s-.76.14-.95.42c-.19.28-.29.59-.32.92-.02.35-.03.68-.03.97s0,.64.03,1.02c.03.21.09.42.17.62s.21.38.38.5.42.19.72.19Zm9.86,10.39c-1.09,0-1.95-.29-2.58-.86-.63-.58-.98-1.34-1.04-2.3-.03-.42-.04-.78-.04-1.1,0-.32.02-.7.04-1.15.05-.96.38-1.74,1-2.33.62-.59,1.49-.89,2.63-.89s2.01.3,2.63.89c.62.59.95,1.37,1,2.33.03.45.05.83.05,1.15s-.02.69-.05,1.1c-.05.96-.4,1.73-1.04,2.3-.65.58-1.51.86-2.58.86Zm0-1.97c.3,0,.54-.06.72-.19s.31-.3.4-.5.14-.42.16-.65c.03-.37.05-.7.05-1s-.02-.63-.05-1c-.02-.34-.12-.64-.31-.91-.19-.27-.51-.41-.96-.41s-.76.14-.95.41c-.18.27-.29.58-.32.91-.02.37-.02.7-.02,1s0,.63.02,1c.03.22.08.44.16.65s.2.38.38.5c.18.13.43.19.73.19Z"/>
  </g>
  <g>
    <path class="cls-2" d="m225.98,373.85c-1.41,0-2.63-.26-3.66-.77-1.03-.51-1.83-1.22-2.4-2.12-.57-.9-.85-1.92-.85-3.06,0-.48.07-.96.22-1.44.14-.48.32-.93.53-1.36s.42-.8.64-1.14c.22-.34.4-.61.54-.82l4.32-5.86c.08-.08.18-.18.31-.3.13-.12.3-.18.53-.18h2.69c.14,0,.26.05.36.16.1.1.14.23.14.37,0,.06,0,.12-.02.18s-.04.1-.07.13l-3.31,4.54c.13-.03.28-.06.44-.07.17-.02.32-.02.44-.02.77.03,1.51.19,2.22.48.71.29,1.35.68,1.91,1.19.56.5,1,1.1,1.33,1.79.33.69.49,1.46.49,2.3,0,1.07-.28,2.06-.83,2.98-.55.91-1.34,1.64-2.35,2.2-1.02.55-2.22.83-3.61.83Zm-.05-3.1c.53,0,1.02-.11,1.46-.32.45-.22.81-.54,1.08-.97.27-.43.41-.95.41-1.56s-.14-1.15-.41-1.57-.63-.74-1.08-.96-.94-.32-1.46-.32-1.02.11-1.46.32c-.45.22-.81.54-1.08.96-.27.42-.41.95-.41,1.57s.14,1.13.42,1.56c.28.43.64.76,1.08.97.44.22.92.32,1.45.32Z"/>
    <path class="cls-2" d="m241.29,373.85c-1.41,0-2.63-.26-3.66-.77-1.03-.51-1.83-1.22-2.4-2.12-.57-.9-.85-1.92-.85-3.06,0-.48.07-.96.22-1.44.14-.48.32-.93.53-1.36s.42-.8.64-1.14c.22-.34.4-.61.54-.82l4.32-5.86c.08-.08.18-.18.31-.3.13-.12.3-.18.53-.18h2.69c.14,0,.26.05.36.16.1.1.14.23.14.37,0,.06,0,.12-.02.18s-.04.1-.07.13l-3.31,4.54c.13-.03.28-.06.44-.07.17-.02.32-.02.44-.02.77.03,1.51.19,2.22.48.71.29,1.35.68,1.91,1.19.56.5,1,1.1,1.33,1.79.33.69.49,1.46.49,2.3,0,1.07-.28,2.06-.83,2.98-.55.91-1.34,1.64-2.35,2.2-1.02.55-2.22.83-3.61.83Zm-.05-3.1c.53,0,1.02-.11,1.46-.32.45-.22.81-.54,1.08-.97.27-.43.41-.95.41-1.56s-.14-1.15-.41-1.57-.63-.74-1.08-.96-.94-.32-1.46-.32-1.02.11-1.46.32c-.45.22-.81.54-1.08.96-.27.42-.41.95-.41,1.57s.14,1.13.42,1.56c.28.43.64.76,1.08.97.44.22.92.32,1.45.32Z"/>
    <path class="cls-2" d="m258.71,365.28c-1.09,0-1.95-.28-2.58-.85-.63-.57-.98-1.33-1.04-2.29-.03-.42-.04-.78-.04-1.09,0-.31.02-.69.04-1.14.05-.98.38-1.76,1-2.34.62-.58,1.49-.88,2.63-.88s2.03.29,2.64.88c.61.58.94,1.36.98,2.34.03.45.05.83.05,1.14s-.02.68-.05,1.09c-.05.96-.39,1.72-1.03,2.29-.64.57-1.5.85-2.59.85Zm-1.94,8.33c-.35,0-.53-.16-.53-.48,0-.1.03-.18.1-.26l11.86-15.6c.11-.14.22-.26.34-.34s.27-.12.48-.12h1.49c.35,0,.53.16.53.48,0,.1-.03.18-.1.26l-11.86,15.6c-.11.14-.22.26-.32.34-.1.08-.27.12-.49.12h-1.49Zm1.94-10.27c.3,0,.54-.06.72-.19.18-.13.31-.3.4-.5s.14-.42.16-.62c.03-.38.05-.72.05-1.02s-.02-.62-.05-.97c-.02-.34-.12-.64-.31-.92-.19-.28-.51-.42-.96-.42s-.76.14-.95.42c-.18.28-.29.59-.32.92-.02.35-.02.68-.02.97s0,.64.02,1.02c.03.21.09.42.17.62s.21.38.38.5.42.19.72.19Zm9.86,10.39c-1.09,0-1.95-.29-2.58-.86s-.98-1.34-1.04-2.3c-.03-.42-.04-.78-.04-1.1,0-.32.02-.7.04-1.15.05-.96.38-1.74,1-2.33s1.49-.89,2.63-.89,2.01.3,2.63.89.95,1.37,1,2.33c.03.45.05.83.05,1.15s-.02.69-.05,1.1c-.05.96-.4,1.73-1.04,2.3-.65.58-1.51.86-2.58.86Zm0-1.97c.3,0,.54-.06.72-.19.18-.13.31-.3.4-.5s.14-.42.16-.65c.03-.37.05-.7.05-1s-.02-.63-.05-1c-.02-.34-.12-.64-.31-.91-.19-.27-.51-.41-.96-.41s-.76.14-.95.41c-.18.27-.29.58-.32.91-.02.37-.02.7-.02,1s0,.63.02,1c.03.22.08.44.16.65.07.21.2.38.38.5.18.13.43.19.73.19Z"/>
  </g>
  <g>
    <path class="cls-2" d="m956.88,279.87c-1.18,0-2.2-.14-3.05-.43-.85-.29-1.54-.66-2.09-1.1s-.95-.94-1.22-1.48c-.27-.54-.42-1.05-.43-1.55,0-.14.05-.26.14-.36.1-.1.22-.14.36-.14h2.64c.18,0,.32.04.43.11.11.07.22.2.31.37.13.37.34.66.62.89.29.22.63.38,1.02.47.39.09.81.13,1.26.13.9,0,1.6-.21,2.11-.62.51-.42.77-1,.77-1.75s-.24-1.32-.72-1.66-1.16-.5-2.04-.5h-2.57c-.16,0-.3-.06-.41-.17s-.17-.25-.17-.41v-1.18c0-.19.04-.35.11-.48s.15-.22.23-.29l4.13-3.79h-6.77c-.18,0-.32-.06-.43-.17-.11-.11-.17-.25-.17-.41v-1.92c0-.18.06-.32.17-.43.11-.11.26-.17.43-.17h10.66c.18,0,.32.06.43.17.11.11.17.26.17.43v1.73c0,.18-.03.32-.1.44-.06.12-.14.21-.24.28l-3.91,3.86.24.02c.94.1,1.78.33,2.52.7.74.37,1.32.89,1.74,1.57s.64,1.54.64,2.58-.3,2.02-.89,2.81-1.4,1.39-2.42,1.81c-1.02.42-2.19.64-3.5.64Z"/>
    <path class="cls-2" d="m974.11,279.63c-.16,0-.3-.06-.41-.17-.11-.11-.17-.26-.17-.43v-2.88h-7.56c-.16,0-.3-.06-.41-.17-.11-.11-.17-.25-.17-.43v-1.94c0-.11.02-.23.07-.36.05-.13.11-.25.19-.36l7.03-9.65c.21-.27.5-.41.89-.41h3.05c.16,0,.3.06.41.17.11.11.17.26.17.43v9.53h2.14c.19,0,.34.06.44.17.1.11.16.25.16.41v2.02c0,.18-.06.32-.17.43s-.25.17-.41.17h-2.16v2.88c0,.18-.06.32-.17.43s-.25.17-.41.17h-2.52Zm-4.99-6.55h4.49v-6.31l-4.49,6.31Z"/>
    <path class="cls-2" d="m990.62,271.3c-1.09,0-1.95-.28-2.58-.85-.63-.57-.98-1.33-1.04-2.29-.03-.42-.04-.78-.04-1.09,0-.31.02-.69.04-1.14.05-.98.38-1.76,1-2.34.62-.58,1.49-.88,2.63-.88s2.03.29,2.64.88c.61.58.94,1.36.98,2.34.03.45.05.83.05,1.14s-.02.68-.05,1.09c-.05.96-.39,1.72-1.03,2.29-.64.57-1.5.85-2.59.85Zm-1.94,8.33c-.35,0-.53-.16-.53-.48,0-.1.03-.18.1-.26l11.86-15.6c.11-.14.22-.26.34-.34s.27-.12.48-.12h1.49c.35,0,.53.16.53.48,0,.1-.03.18-.1.26l-11.86,15.6c-.11.14-.22.26-.32.34-.1.08-.27.12-.49.12h-1.49Zm1.94-10.27c.3,0,.54-.06.72-.19.18-.13.31-.3.4-.5s.14-.42.16-.62c.03-.38.05-.72.05-1.02s-.02-.62-.05-.97c-.02-.34-.12-.64-.31-.92-.19-.28-.51-.42-.96-.42s-.76.14-.95.42c-.18.28-.29.59-.32.92-.02.35-.02.68-.02.97s0,.64.02,1.02c.03.21.09.42.17.62s.21.38.38.5.42.19.72.19Zm9.86,10.39c-1.09,0-1.95-.29-2.58-.86s-.98-1.34-1.04-2.3c-.03-.42-.04-.78-.04-1.1,0-.32.02-.7.04-1.15.05-.96.38-1.74,1-2.33s1.49-.89,2.63-.89,2.01.3,2.63.89.95,1.37,1,2.33c.03.45.05.83.05,1.15s-.02.69-.05,1.1c-.05.96-.4,1.73-1.04,2.3-.65.58-1.51.86-2.58.86Zm0-1.97c.3,0,.54-.06.72-.19.18-.13.31-.3.4-.5s.14-.42.16-.65c.03-.37.05-.7.05-1s-.02-.63-.05-1c-.02-.34-.12-.64-.31-.91-.19-.27-.51-.41-.96-.41s-.76.14-.95.41c-.18.27-.29.58-.32.91-.02.37-.02.7-.02,1s0,.63.02,1c.03.22.08.44.16.65.07.21.2.38.38.5.18.13.43.19.73.19Z"/>
  </g>
  <g>
    <path class="cls-2" d="m757.25,373.85c-1.41,0-2.63-.26-3.66-.77-1.03-.51-1.83-1.22-2.4-2.12-.57-.9-.85-1.92-.85-3.06,0-.48.07-.96.22-1.44.14-.48.32-.93.53-1.36s.42-.8.64-1.14c.22-.34.4-.61.54-.82l4.32-5.86c.08-.08.18-.18.31-.3.13-.12.3-.18.53-.18h2.69c.14,0,.26.05.36.16.1.1.14.23.14.37,0,.06,0,.12-.02.18s-.04.1-.07.13l-3.31,4.54c.13-.03.28-.06.44-.07.17-.02.32-.02.44-.02.77.03,1.51.19,2.22.48.71.29,1.35.68,1.91,1.19.56.5,1,1.1,1.33,1.79.33.69.49,1.46.49,2.3,0,1.07-.28,2.06-.83,2.98-.55.91-1.34,1.64-2.35,2.2-1.02.55-2.22.83-3.61.83Zm-.05-3.1c.53,0,1.02-.11,1.46-.32.45-.22.81-.54,1.08-.97.27-.43.41-.95.41-1.56s-.14-1.15-.41-1.57-.63-.74-1.08-.96-.94-.32-1.46-.32-1.02.11-1.46.32c-.45.22-.81.54-1.08.96-.27.42-.41.95-.41,1.57s.14,1.13.42,1.56c.28.43.64.76,1.08.97.44.22.92.32,1.45.32Z"/>
    <path class="cls-2" d="m772.56,373.85c-1.41,0-2.63-.26-3.66-.77-1.03-.51-1.83-1.22-2.4-2.12-.57-.9-.85-1.92-.85-3.06,0-.48.07-.96.22-1.44.14-.48.32-.93.53-1.36s.42-.8.64-1.14c.22-.34.4-.61.54-.82l4.32-5.86c.08-.08.18-.18.31-.3.13-.12.3-.18.53-.18h2.69c.14,0,.26.05.36.16.1.1.14.23.14.37,0,.06,0,.12-.02.18s-.04.1-.07.13l-3.31,4.54c.13-.03.28-.06.44-.07.17-.02.32-.02.44-.02.77.03,1.51.19,2.22.48.71.29,1.35.68,1.91,1.19.56.5,1,1.1,1.33,1.79.33.69.49,1.46.49,2.3,0,1.07-.28,2.06-.83,2.98-.55.91-1.34,1.64-2.35,2.2-1.02.55-2.22.83-3.61.83Zm-.05-3.1c.53,0,1.02-.11,1.46-.32.45-.22.81-.54,1.08-.97.27-.43.41-.95.41-1.56s-.14-1.15-.41-1.57-.63-.74-1.08-.96-.94-.32-1.46-.32-1.02.11-1.46.32c-.45.22-.81.54-1.08.96-.27.42-.41.95-.41,1.57s.14,1.13.42,1.56c.28.43.64.76,1.08.97.44.22.92.32,1.45.32Z"/>
    <path class="cls-2" d="m789.99,365.28c-1.09,0-1.95-.28-2.58-.85-.63-.57-.98-1.33-1.04-2.29-.03-.42-.04-.78-.04-1.09,0-.31.02-.69.04-1.14.05-.98.38-1.76,1-2.34.62-.58,1.49-.88,2.63-.88s2.03.29,2.64.88c.61.58.94,1.36.98,2.34.03.45.05.83.05,1.14s-.02.68-.05,1.09c-.05.96-.39,1.72-1.03,2.29-.64.57-1.5.85-2.59.85Zm-1.94,8.33c-.35,0-.53-.16-.53-.48,0-.1.03-.18.1-.26l11.86-15.6c.11-.14.22-.26.34-.34s.27-.12.48-.12h1.49c.35,0,.53.16.53.48,0,.1-.03.18-.1.26l-11.86,15.6c-.11.14-.22.26-.32.34-.1.08-.27.12-.49.12h-1.49Zm1.94-10.27c.3,0,.54-.06.72-.19.18-.13.31-.3.4-.5s.14-.42.16-.62c.03-.38.05-.72.05-1.02s-.02-.62-.05-.97c-.02-.34-.12-.64-.31-.92-.19-.28-.51-.42-.96-.42s-.76.14-.95.42c-.18.28-.29.59-.32.92-.02.35-.02.68-.02.97s0,.64.02,1.02c.03.21.09.42.17.62s.21.38.38.5.42.19.72.19Zm9.86,10.39c-1.09,0-1.95-.29-2.58-.86s-.98-1.34-1.04-2.3c-.03-.42-.04-.78-.04-1.1,0-.32.02-.7.04-1.15.05-.96.38-1.74,1-2.33s1.49-.89,2.63-.89,2.01.3,2.63.89.95,1.37,1,2.33c.03.45.05.83.05,1.15s-.02.69-.05,1.1c-.05.96-.4,1.73-1.04,2.3-.65.58-1.51.86-2.58.86Zm0-1.97c.3,0,.54-.06.72-.19.18-.13.31-.3.4-.5s.14-.42.16-.65c.03-.37.05-.7.05-1s-.02-.63-.05-1c-.02-.34-.12-.64-.31-.91-.19-.27-.51-.41-.96-.41s-.76.14-.95.41c-.18.27-.29.58-.32.91-.02.37-.02.7-.02,1s0,.63.02,1c.03.22.08.44.16.65.07.21.2.38.38.5.18.13.43.19.73.19Z"/>
  </g>
  <text class="cls-4" transform="translate(252.05 74.56)"><tspan x="0" y="0">Core vs SF</tspan></text>
  <text class="cls-4" transform="translate(667.37 74.56)"><tspan x="0" y="0">Salary vs Other Expenses</tspan></text>
  <g>
    <circle class="cls-1" cx="265.56" cy="625.09" r="11.34"/>
    <g>
      <path d="m295.18,631.76c-.87,0-1.6-.15-2.21-.46-.6-.3-1.06-.74-1.38-1.3-.32-.56-.5-1.24-.53-2.04,0-.38-.01-.79-.01-1.23s0-.86.01-1.26c.04-.78.22-1.46.54-2.03s.79-1.01,1.39-1.31c.6-.3,1.33-.46,2.19-.46.63,0,1.2.08,1.71.25.5.17.93.4,1.29.69.35.29.63.64.83,1.03.2.39.3.82.31,1.27,0,.08-.02.15-.08.21-.06.06-.13.08-.22.08h-1.33c-.1,0-.19-.03-.25-.08-.07-.05-.11-.14-.14-.26-.15-.62-.41-1.04-.77-1.26-.37-.22-.82-.34-1.36-.34-.63,0-1.12.17-1.5.53-.38.35-.57.93-.6,1.73-.03.77-.03,1.55,0,2.35.03.8.23,1.38.6,1.73.37.35.87.53,1.5.53.54,0,1-.11,1.36-.34.37-.23.62-.65.76-1.25.03-.13.07-.22.14-.27.06-.05.15-.07.25-.07h1.33c.08,0,.16.03.22.08.06.06.09.13.08.21,0,.46-.11.88-.31,1.27-.2.39-.47.74-.83,1.03-.36.29-.79.52-1.29.69s-1.07.25-1.71.25Z"/>
      <path d="m304.03,631.76c-.75,0-1.38-.13-1.88-.39-.51-.26-.9-.63-1.16-1.11-.27-.48-.42-1.03-.46-1.67,0-.17-.01-.37-.01-.62s0-.45.01-.62c.04-.64.19-1.2.47-1.67.28-.47.67-.84,1.18-1.1.51-.26,1.13-.39,1.86-.39s1.35.13,1.86.39c.51.26.9.63,1.18,1.1.28.47.43,1.03.47,1.67,0,.17.01.37.01.62s0,.45-.01.62c-.04.63-.19,1.19-.46,1.67-.27.48-.65.84-1.16,1.11-.51.26-1.14.39-1.88.39Zm0-1.39c.49,0,.88-.16,1.15-.47.27-.31.42-.77.45-1.38,0-.14.01-.32.01-.55s0-.41-.01-.55c-.03-.61-.18-1.07-.45-1.38-.27-.31-.65-.47-1.15-.47s-.88.16-1.15.47c-.27.31-.42.77-.45,1.38,0,.14-.01.32-.01.55s0,.41.01.55c.03.61.18,1.07.45,1.38.27.31.65.47,1.15.47Z"/>
      <path d="m309.43,631.62c-.09,0-.17-.03-.24-.1s-.1-.14-.1-.24v-6.59c0-.1.03-.19.1-.25s.14-.1.24-.1h1.13c.09,0,.18.03.25.1s.11.15.11.25v.57c.21-.3.49-.53.83-.69.34-.16.73-.24,1.18-.24h.57c.1,0,.18.03.24.1s.09.14.09.24v1.01c0,.09-.03.17-.09.24s-.14.1-.24.1h-1.09c-.45,0-.8.12-1.04.37-.25.25-.37.59-.37,1.04v3.85c0,.09-.03.17-.1.24-.07.07-.15.1-.25.1h-1.22Z"/>
      <path d="m317.97,631.76c-1.04,0-1.86-.3-2.46-.9-.61-.6-.93-1.45-.98-2.55,0-.09-.02-.21-.02-.36s0-.26.02-.34c.04-.71.2-1.32.48-1.83s.68-.9,1.18-1.18,1.1-.41,1.78-.41c.76,0,1.39.16,1.9.47s.9.75,1.16,1.3c.26.56.39,1.2.39,1.93v.29c0,.09-.03.17-.1.24-.06.07-.15.1-.25.1h-4.65v.11c0,.33.07.63.19.9s.29.5.52.67c.23.17.5.25.82.25.26,0,.48-.04.66-.12.18-.08.32-.17.43-.27s.19-.19.24-.25c.08-.11.15-.18.2-.2.05-.02.13-.04.23-.04h1.2c.09,0,.17.03.23.08s.09.13.08.21c0,.15-.09.33-.23.55s-.35.42-.62.63c-.27.21-.61.38-1.02.51-.41.14-.87.2-1.39.2Zm-1.54-4.41h3.1v-.04c0-.36-.06-.68-.18-.96-.12-.27-.3-.49-.53-.64s-.51-.23-.84-.23-.61.08-.84.23c-.23.15-.41.37-.53.64-.12.28-.18.6-.18.96v.04Z"/>
    </g>
    <circle class="cls-3" cx="363.73" cy="625.09" r="11.34"/>
    <g>
      <path d="m392.74,631.76c-.87,0-1.59-.13-2.18-.38-.58-.26-1.03-.59-1.33-1.01-.3-.42-.46-.85-.48-1.31,0-.08.03-.15.08-.21.06-.06.13-.08.21-.08h1.25c.12,0,.21.03.27.08.06.05.11.11.16.19.06.18.16.35.32.52.16.17.38.32.65.43.28.11.62.17,1.04.17.67,0,1.17-.11,1.5-.34.33-.22.5-.53.5-.91,0-.27-.09-.49-.27-.65-.18-.16-.45-.31-.82-.45-.37-.13-.86-.28-1.46-.43-.7-.17-1.29-.37-1.76-.61-.47-.24-.83-.54-1.06-.9s-.36-.83-.36-1.39.15-1.02.44-1.44.71-.75,1.26-.99c.55-.24,1.2-.36,1.95-.36.61,0,1.14.08,1.61.25.47.16.85.38,1.16.64.31.27.54.55.71.85.16.3.25.6.26.89,0,.07-.03.14-.08.2-.05.06-.12.09-.22.09h-1.3c-.08,0-.15-.02-.22-.06-.07-.04-.13-.11-.18-.21-.06-.29-.24-.54-.55-.74-.31-.21-.71-.31-1.19-.31s-.91.09-1.22.28-.46.48-.46.87c0,.26.08.48.23.65.15.17.4.32.74.46s.79.27,1.35.42c.79.18,1.44.38,1.95.62s.87.53,1.11.89c.23.36.35.81.35,1.37,0,.62-.17,1.14-.5,1.58s-.8.77-1.39,1c-.6.23-1.29.35-2.09.35Z"/>
      <path d="m398.67,631.62c-.09,0-.17-.03-.24-.1-.07-.07-.1-.14-.1-.24v-9.11c0-.1.03-.19.1-.25.06-.07.14-.1.24-.1h6.08c.1,0,.19.03.25.1s.1.15.1.25v.98c0,.1-.03.18-.1.25s-.15.09-.25.09h-4.49v2.66h4.21c.1,0,.19.03.25.1s.1.15.1.25v.98c0,.09-.03.17-.1.24-.07.07-.15.1-.25.1h-4.21v3.47c0,.09-.03.17-.1.24s-.15.1-.25.1h-1.23Z"/>
    </g>
  </g>
  <g>
    <circle class="cls-1" cx="811.03" cy="625.09" r="11.34"/>
    <g>
      <path d="m840.27,631.76c-.87,0-1.59-.13-2.18-.38-.58-.26-1.03-.59-1.33-1.01-.3-.42-.46-.85-.48-1.31,0-.08.03-.15.08-.21.06-.06.13-.08.21-.08h1.25c.12,0,.21.03.27.08.06.05.11.11.16.19.06.18.16.35.32.52.16.17.38.32.65.43.28.11.62.17,1.04.17.67,0,1.17-.11,1.5-.34.33-.22.5-.53.5-.91,0-.27-.09-.49-.27-.65-.18-.16-.45-.31-.82-.45-.37-.13-.86-.28-1.46-.43-.7-.17-1.29-.37-1.76-.61-.47-.24-.83-.54-1.06-.9s-.36-.83-.36-1.39.15-1.02.44-1.44.71-.75,1.26-.99c.55-.24,1.2-.36,1.95-.36.61,0,1.14.08,1.61.25.47.16.85.38,1.16.64.31.27.54.55.71.85.16.3.25.6.26.89,0,.07-.03.14-.08.2-.05.06-.12.09-.22.09h-1.3c-.08,0-.15-.02-.22-.06-.07-.04-.13-.11-.18-.21-.06-.29-.24-.54-.55-.74-.31-.21-.71-.31-1.19-.31s-.91.09-1.22.28-.46.48-.46.87c0,.26.08.48.23.65.15.17.4.32.74.46s.79.27,1.35.42c.79.18,1.44.38,1.95.62s.87.53,1.11.89c.23.36.35.81.35,1.37,0,.62-.17,1.14-.5,1.58s-.8.77-1.39,1c-.6.23-1.29.35-2.09.35Z"/>
      <path d="m847.8,631.76c-.49,0-.92-.1-1.32-.29-.39-.19-.7-.45-.93-.77s-.34-.68-.34-1.08c0-.65.27-1.17.8-1.56.53-.39,1.23-.65,2.09-.78l1.92-.28v-.29c0-.39-.1-.7-.29-.91s-.53-.32-1.01-.32c-.34,0-.61.07-.82.2-.21.14-.37.32-.47.54-.08.12-.18.18-.32.18h-1.11c-.1,0-.18-.03-.23-.08-.05-.06-.08-.13-.08-.22,0-.15.07-.33.19-.55.12-.21.29-.42.53-.62.24-.2.55-.37.93-.51s.84-.21,1.39-.21c.59,0,1.08.07,1.49.22s.73.34.97.58.42.53.53.85c.11.33.17.67.17,1.04v4.4c0,.09-.03.17-.1.24-.07.07-.15.1-.24.1h-1.13c-.1,0-.18-.03-.25-.1s-.09-.14-.09-.24v-.55c-.12.17-.29.33-.49.49-.21.16-.46.29-.75.38-.29.1-.64.15-1.04.15Zm.48-1.33c.33,0,.62-.07.89-.21.27-.14.48-.36.63-.65.15-.29.23-.67.23-1.11v-.29l-1.4.22c-.55.08-.96.22-1.23.41s-.41.42-.41.69c0,.21.06.38.19.52s.29.25.48.32c.2.07.4.1.62.1Z"/>
      <path d="m854.03,631.62c-.09,0-.17-.03-.24-.1s-.1-.14-.1-.24v-9.27c0-.09.03-.17.1-.24s.14-.1.24-.1h1.16c.09,0,.17.03.24.1s.1.14.1.24v9.27c0,.09-.03.17-.1.24s-.14.1-.24.1h-1.16Z"/>
      <path d="m859.51,631.76c-.49,0-.92-.1-1.32-.29-.39-.19-.7-.45-.93-.77s-.34-.68-.34-1.08c0-.65.27-1.17.8-1.56.53-.39,1.23-.65,2.09-.78l1.92-.28v-.29c0-.39-.1-.7-.29-.91s-.53-.32-1.01-.32c-.34,0-.61.07-.82.2-.21.14-.37.32-.47.54-.08.12-.18.18-.32.18h-1.11c-.1,0-.18-.03-.23-.08-.05-.06-.08-.13-.08-.22,0-.15.07-.33.19-.55.12-.21.29-.42.53-.62.24-.2.55-.37.93-.51s.84-.21,1.39-.21c.59,0,1.08.07,1.49.22s.73.34.97.58.42.53.53.85c.11.33.17.67.17,1.04v4.4c0,.09-.03.17-.1.24-.07.07-.15.1-.24.1h-1.13c-.1,0-.18-.03-.25-.1s-.09-.14-.09-.24v-.55c-.12.17-.29.33-.49.49-.21.16-.46.29-.75.38-.29.1-.64.15-1.04.15Zm.48-1.33c.33,0,.62-.07.89-.21.27-.14.48-.36.63-.65.15-.29.23-.67.23-1.11v-.29l-1.4.22c-.55.08-.96.22-1.23.41s-.41.42-.41.69c0,.21.06.38.19.52s.29.25.48.32c.2.07.4.1.62.1Z"/>
      <path d="m865.72,631.62c-.09,0-.17-.03-.24-.1-.07-.07-.1-.14-.1-.24v-6.59c0-.1.03-.19.1-.25.06-.07.14-.1.24-.1h1.13c.09,0,.18.03.25.1.07.07.11.15.11.25v.57c.21-.3.49-.53.83-.69.34-.16.73-.24,1.18-.24h.57c.1,0,.18.03.25.1s.09.14.09.24v1.01c0,.09-.03.17-.09.24s-.14.1-.25.1h-1.09c-.45,0-.8.12-1.04.37-.25.25-.37.59-.37,1.04v3.85c0,.09-.03.17-.1.24-.07.07-.15.1-.25.1h-1.22Z"/>
      <path d="m872.54,634.28c-.08,0-.14-.03-.2-.08-.06-.06-.08-.12-.08-.2,0-.04,0-.07,0-.1,0-.03.02-.07.05-.12l1.09-2.59-2.69-6.34c-.04-.09-.06-.16-.06-.2,0-.08.04-.16.1-.22.06-.06.13-.09.21-.09h1.13c.11,0,.2.03.25.08s.1.12.13.18l1.86,4.58,1.92-4.58c.03-.08.07-.14.13-.19.06-.05.14-.08.25-.08h1.12c.07,0,.14.03.2.08.06.06.09.12.09.2,0,.06-.02.13-.06.22l-3.96,9.17c-.04.08-.08.14-.14.19-.06.05-.14.08-.25.08h-1.11Z"/>
    </g>
    <circle class="cls-3" cx="909.2" cy="625.09" r="11.34"/>
    <g>
      <path d="m938.58,631.76c-.83,0-1.54-.14-2.14-.41-.6-.27-1.06-.7-1.4-1.27s-.52-1.29-.55-2.15c0-.4-.01-.8-.01-1.19s0-.79.01-1.2c.03-.85.21-1.56.56-2.13.34-.57.82-1,1.42-1.29s1.3-.43,2.11-.43,1.51.15,2.11.43,1.08.72,1.43,1.29c.34.57.53,1.28.56,2.13.02.41.03.81.03,1.2s0,.79-.03,1.19c-.03.86-.21,1.58-.55,2.15s-.8,1-1.41,1.27c-.6.28-1.32.41-2.15.41Zm0-1.61c.61,0,1.1-.18,1.48-.54s.59-.95.62-1.76c.02-.41.03-.79.03-1.14s0-.73-.03-1.13c-.02-.54-.12-.98-.3-1.32-.18-.34-.43-.59-.74-.74-.31-.15-.66-.23-1.06-.23s-.74.08-1.05.23c-.31.15-.55.4-.73.74-.18.34-.28.78-.3,1.32,0,.4-.01.78-.01,1.13s0,.73.01,1.14c.03.81.23,1.4.62,1.76s.87.54,1.47.54Z"/>
      <path d="m947.66,631.62c-.56,0-1.03-.1-1.41-.29s-.67-.49-.85-.88c-.19-.39-.28-.87-.28-1.45v-3.18h-1.11c-.09,0-.17-.03-.24-.1-.07-.07-.1-.15-.1-.25v-.8c0-.09.03-.17.1-.24.06-.07.14-.1.24-.1h1.11v-2.32c0-.09.03-.17.09-.24s.14-.1.25-.1h1.13c.09,0,.17.03.24.1s.1.14.1.24v2.32h1.75c.09,0,.17.03.24.1s.1.14.1.24v.8c0,.1-.03.19-.1.25s-.14.1-.24.1h-1.75v3.04c0,.38.07.68.2.9.14.21.37.32.71.32h.97c.09,0,.17.03.24.1.07.07.1.15.1.24v.87c0,.09-.03.17-.1.24s-.14.1-.24.1h-1.13Z"/>
      <path d="m950.73,631.62c-.09,0-.17-.03-.24-.1s-.1-.14-.1-.24v-9.27c0-.09.03-.17.1-.24s.14-.1.24-.1h1.25c.1,0,.18.03.25.1s.09.14.09.24v3.19c.25-.3.56-.54.92-.73.36-.19.81-.28,1.34-.28.57,0,1.07.13,1.49.38s.75.62.99,1.08.35,1.03.35,1.68v3.93c0,.09-.03.17-.1.24-.06.07-.14.1-.24.1h-1.26c-.09,0-.17-.03-.24-.1s-.1-.14-.1-.24v-3.85c0-.54-.13-.97-.4-1.27s-.65-.46-1.16-.46-.88.15-1.17.46-.44.73-.44,1.27v3.85c0,.09-.03.17-.09.24s-.14.1-.25.1h-1.25Z"/>
      <path d="m962.32,631.76c-1.04,0-1.86-.3-2.46-.9s-.93-1.45-.98-2.55c0-.09-.01-.21-.01-.36s0-.26.01-.34c.04-.71.2-1.32.48-1.83.29-.51.68-.9,1.18-1.18s1.1-.41,1.78-.41c.76,0,1.39.16,1.9.47s.9.75,1.16,1.3c.26.56.39,1.2.39,1.93v.29c0,.09-.03.17-.1.24-.07.07-.15.1-.25.1h-4.65v.11c0,.33.07.63.19.9.12.28.29.5.52.67.23.17.5.25.82.25.26,0,.48-.04.66-.12.18-.08.32-.17.43-.27.11-.1.19-.19.24-.25.08-.11.15-.18.2-.2.05-.02.13-.04.23-.04h1.2c.09,0,.17.03.23.08s.09.13.08.21c0,.15-.09.33-.23.55s-.35.42-.62.63c-.27.21-.61.38-1.01.51-.41.14-.87.2-1.39.2Zm-1.54-4.41h3.09v-.04c0-.36-.06-.68-.18-.96-.12-.27-.3-.49-.53-.64-.23-.15-.51-.23-.84-.23s-.61.08-.84.23-.41.37-.52.64c-.12.28-.18.6-.18.96v.04Z"/>
      <path d="m967.6,631.62c-.09,0-.17-.03-.24-.1-.07-.07-.1-.14-.1-.24v-6.59c0-.1.03-.19.1-.25.06-.07.14-.1.24-.1h1.13c.09,0,.18.03.25.1.07.07.11.15.11.25v.57c.21-.3.49-.53.83-.69.34-.16.73-.24,1.18-.24h.57c.1,0,.18.03.25.1s.09.14.09.24v1.01c0,.09-.03.17-.09.24s-.14.1-.25.1h-1.09c-.45,0-.8.12-1.04.37-.25.25-.37.59-.37,1.04v3.85c0,.09-.03.17-.1.24-.07.07-.15.1-.25.1h-1.22Z"/>
    </g>
  </g>
</svg>